<?xml version="1.0" standalone="no"?>
<svg viewBox="0 0 200 200" xmlns="http://www.w3.org/2000/svg">
  <path fill="#FF0066" d="M29.4,-45C42.9,-37.1,61.8,-37,65.4,-29.7C69,-22.4,57.1,-8,49.2,3C41.2,13.9,37.1,21.3,33.9,34.9C30.7,48.5,28.3,68.4,18.7,77.5C9.2,86.6,-7.6,84.8,-20.4,77.4C-33.2,70,-42,57.1,-49.1,44.8C-56.2,32.6,-61.6,21.1,-64.9,8.4C-68.2,-4.3,-69.5,-18.3,-62.7,-26.7C-55.9,-35.1,-41,-37.9,-29.3,-46.6C-17.5,-55.3,-8.7,-69.8,-0.4,-69.2C8,-68.6,16,-52.9,29.4,-45Z" transform="translate(100 100)" />
</svg>
